<?xml version="1.0" encoding="UTF-8" standalone="no"?>
<svg width="21px" height="21px" viewBox="0 0 21 21" version="1.1" xmlns="http://www.w3.org/2000/svg" xmlns:xlink="http://www.w3.org/1999/xlink">
    <!-- Generator: Sketch 3.8.3 (29802) - http://www.bohemiancoding.com/sketch -->
    <title>Degraded-label-color</title>
    <desc>Created with Sketch.</desc>
    <defs></defs>
    <g id="Symbols" stroke="none" stroke-width="1" fill="none" fill-rule="evenodd">
        <g id="Degraded-label-color" fill="#F6A623">
            <g id="Group-10" transform="translate(9.000000, 3.000000)">
                <path d="M3.53877551,0 L3.53877551,9.16428571 L0.225510204,9.16428571 L0.225510204,0 L3.53877551,0 Z M0.546428571,13.9346939 C0.182141036,13.564624 0,13.1136081 0,12.5816327 C0,12.0612219 0.182141036,11.6159882 0.546428571,11.2459184 C0.910716107,10.8758485 1.35884088,10.6908163 1.89081633,10.6908163 C2.42279178,10.6908163 2.87091655,10.8758485 3.23520408,11.2459184 C3.59949162,11.6159882 3.78163265,12.0612219 3.78163265,12.5816327 C3.78163265,13.1136081 3.59949162,13.564624 3.23520408,13.9346939 C2.87091655,14.3047638 2.42279178,14.4897959 1.89081633,14.4897959 C1.35884088,14.4897959 0.910716107,14.3047638 0.546428571,13.9346939 L0.546428571,13.9346939 Z" id="!"></path>
            </g>
        </g>
    </g>
</svg>